PathFileType	4	(X/Y/Z)	C:\Users\Willi\Documents\GitHub\processC3D_GUI\exampleC3Dfiles\gait03_L1\marker_experimental.trc
DataRate	CameraRate	NumFrames	NumMarkers	Units	OrigDataRate	OrigDataStartFrame	OrigNumFrames
2.000000e+02	2.000000e+02	13	48	m	2.000000e+02	109	288
Frame#	Time	CLAV			GLAB			LANK			LASI			LELB			LFIN			LFMH			LHEE			LKNE			LMAS			LPEL			LPSI			LSHO			LTHAD			LTHAP			LTHI			LTIAD			LTIAP			LTIB			LTOE			LVMH			LWRA			LWRB			RANK			RASI			RBAK			RELB			RFIN			RFMH			RHEE			RKNE			RMAS			RPEL			RPSI			RSHO			RTHAD			RTHAP			RTHI			RTIAD			RTIAP			RTIB			RTOE			RVMH			RWRA			RWRB			SACR			T10			T2		
		X1	Y1	Z1	X2	Y2	Z2	X3	Y3	Z3	X4	Y4	Z4	X5	Y5	Z5	X6	Y6	Z6	X7	Y7	Z7	X8	Y8	Z8	X9	Y9	Z9	X10	Y10	Z10	X11	Y11	Z11	X12	Y12	Z12	X13	Y13	Z13	X14	Y14	Z14	X15	Y15	Z15	X16	Y16	Z16	X17	Y17	Z17	X18	Y18	Z18	X19	Y19	Z19	X20	Y20	Z20	X21	Y21	Z21	X22	Y22	Z22	X23	Y23	Z23	X24	Y24	Z24	X25	Y25	Z25	X26	Y26	Z26	X27	Y27	Z27	X28	Y28	Z28	X29	Y29	Z29	X30	Y30	Z30	X31	Y31	Z31	X32	Y32	Z32	X33	Y33	Z33	X34	Y34	Z34	X35	Y35	Z35	X36	Y36	Z36	X37	Y37	Z37	X38	Y38	Z38	X39	Y39	Z39	X40	Y40	Z40	X41	Y41	Z41	X42	Y42	Z42	X43	Y43	Z43	X44	Y44	Z44	X45	Y45	Z45	X46	Y46	Z46	X47	Y47	Z47	X48	Y48	Z48
109	1.58000	1.075	1.385	0.136	1.151	1.618	0.160	0.866	0.065	0.059	1.093	0.996	0.050	0.985	1.094	-0.104	1.083	0.778	-0.144	1.007	0.041	0.130	0.807	0.040	0.094	0.995	0.502	0.028	1.032	1.559	0.074	0.996	1.035	-0.003	0.918	1.018	0.105	1.026	1.415	-0.048	1.021	0.650	-0.001	1.017	0.715	-0.014	0.973	0.666	-0.007	0.934	0.260	0.039	0.911	0.320	0.021	0.883	0.261	0.030	0.961	0.059	0.100	0.987	0.030	0.057	1.082	0.862	-0.115	1.023	0.851	-0.123	1.057	0.119	0.227	1.085	0.979	0.252	0.919	1.358	0.250	0.980	1.091	0.372	1.096	0.771	0.381	1.201	0.058	0.197	1.007	0.085	0.177	1.204	0.527	0.255	1.026	1.541	0.207	0.997	1.029	0.296	0.912	1.007	0.196	1.035	1.411	0.321	1.152	0.670	0.287	1.112	0.723	0.298	1.103	0.659	0.282	1.133	0.283	0.246	1.125	0.348	0.253	1.084	0.296	0.241	1.168	0.078	0.213	1.160	0.054	0.253	1.085	0.852	0.354	1.032	0.844	0.391	0.925	1.048	0.150	0.924	1.204	0.139	0.950	1.434	0.142
110	1.58500	1.082	1.384	0.136	1.159	1.616	0.161	0.866	0.066	0.060	1.100	0.995	0.050	0.994	1.093	-0.104	1.096	0.778	-0.145	1.007	0.041	0.130	0.807	0.040	0.094	0.997	0.501	0.028	1.039	1.558	0.074	1.003	1.034	-0.003	0.925	1.017	0.105	1.033	1.414	-0.048	1.025	0.650	-0.001	1.022	0.714	-0.014	0.977	0.665	-0.007	0.935	0.260	0.039	0.912	0.320	0.021	0.884	0.261	0.030	0.961	0.059	0.100	0.987	0.030	0.057	1.094	0.863	-0.115	1.035	0.851	-0.124	1.078	0.114	0.227	1.092	0.978	0.252	0.926	1.357	0.250	0.986	1.090	0.373	1.103	0.771	0.382	1.224	0.058	0.197	1.030	0.079	0.177	1.212	0.527	0.255	1.034	1.540	0.207	1.003	1.028	0.296	0.919	1.006	0.197	1.042	1.410	0.322	1.160	0.671	0.288	1.120	0.723	0.299	1.111	0.659	0.283	1.149	0.281	0.246	1.138	0.346	0.253	1.099	0.292	0.241	1.190	0.077	0.213	1.183	0.052	0.253	1.091	0.851	0.355	1.039	0.843	0.392	0.932	1.047	0.150	0.931	1.203	0.139	0.957	1.433	0.142
111	1.59000	1.090	1.383	0.137	1.167	1.615	0.161	0.866	0.066	0.060	1.107	0.994	0.050	1.003	1.092	-0.105	1.109	0.779	-0.145	1.007	0.041	0.130	0.807	0.041	0.095	1.000	0.501	0.028	1.047	1.558	0.075	1.010	1.034	-0.002	0.932	1.016	0.106	1.040	1.414	-0.047	1.029	0.649	-0.001	1.026	0.714	-0.014	0.982	0.665	-0.008	0.936	0.260	0.039	0.914	0.320	0.021	0.886	0.261	0.030	0.961	0.059	0.100	0.987	0.030	0.057	1.106	0.863	-0.116	1.047	0.850	-0.125	1.099	0.110	0.227	1.099	0.977	0.252	0.933	1.356	0.250	0.993	1.089	0.373	1.110	0.770	0.383	1.247	0.058	0.197	1.052	0.073	0.177	1.221	0.527	0.256	1.041	1.539	0.207	1.010	1.027	0.296	0.926	1.005	0.197	1.049	1.409	0.322	1.169	0.670	0.289	1.127	0.722	0.300	1.119	0.659	0.284	1.164	0.279	0.247	1.152	0.343	0.253	1.115	0.288	0.242	1.213	0.076	0.213	1.206	0.052	0.253	1.098	0.851	0.356	1.045	0.842	0.393	0.939	1.046	0.151	0.938	1.202	0.139	0.965	1.432	0.142
112	1.59500	1.097	1.382	0.137	1.175	1.614	0.161	0.866	0.066	0.060	1.114	0.993	0.050	1.012	1.091	-0.105	1.122	0.779	-0.146	1.007	0.041	0.130	0.807	0.041	0.095	1.003	0.501	0.027	1.054	1.557	0.075	1.017	1.033	-0.002	0.939	1.015	0.106	1.047	1.412	-0.047	1.034	0.649	-0.001	1.031	0.713	-0.014	0.986	0.665	-0.008	0.937	0.260	0.038	0.915	0.320	0.021	0.887	0.262	0.030	0.962	0.059	0.100	0.987	0.030	0.057	1.117	0.863	-0.116	1.059	0.850	-0.125	1.121	0.106	0.227	1.106	0.976	0.252	0.940	1.355	0.250	0.999	1.088	0.374	1.117	0.769	0.384	1.270	0.059	0.198	1.075	0.068	0.177	1.230	0.527	0.256	1.049	1.538	0.208	1.017	1.026	0.297	0.933	1.004	0.197	1.057	1.407	0.322	1.177	0.670	0.289	1.135	0.722	0.300	1.127	0.658	0.284	1.180	0.277	0.247	1.165	0.340	0.254	1.130	0.285	0.242	1.235	0.076	0.214	1.229	0.051	0.254	1.105	0.850	0.357	1.052	0.841	0.393	0.946	1.045	0.151	0.945	1.201	0.140	0.972	1.431	0.143
113	1.60000	1.104	1.381	0.137	1.182	1.612	0.162	0.866	0.067	0.060	1.121	0.992	0.051	1.021	1.090	-0.106	1.135	0.780	-0.146	1.007	0.041	0.130	0.808	0.042	0.095	1.005	0.500	0.027	1.062	1.556	0.075	1.024	1.032	-0.002	0.946	1.014	0.106	1.055	1.411	-0.047	1.038	0.648	-0.001	1.036	0.713	-0.014	0.991	0.665	-0.008	0.938	0.260	0.038	0.917	0.320	0.021	0.888	0.262	0.030	0.962	0.059	0.100	0.987	0.030	0.057	1.129	0.864	-0.117	1.070	0.849	-0.126	1.142	0.102	0.227	1.113	0.975	0.253	0.947	1.354	0.250	1.005	1.087	0.375	1.123	0.769	0.385	1.293	0.060	0.198	1.098	0.063	0.177	1.238	0.526	0.257	1.056	1.537	0.208	1.024	1.025	0.297	0.940	1.002	0.198	1.064	1.406	0.322	1.184	0.670	0.290	1.143	0.721	0.301	1.135	0.658	0.285	1.196	0.275	0.248	1.179	0.338	0.254	1.146	0.281	0.242	1.257	0.076	0.214	1.252	0.051	0.254	1.111	0.849	0.358	1.058	0.840	0.394	0.953	1.044	0.152	0.952	1.200	0.140	0.979	1.430	0.143
114	1.60500	1.111	1.380	0.137	1.190	1.611	0.162	0.866	0.067	0.061	1.128	0.991	0.051	1.029	1.089	-0.106	1.148	0.780	-0.147	1.008	0.041	0.130	0.808	0.043	0.096	1.008	0.500	0.027	1.070	1.555	0.075	1.031	1.031	-0.001	0.953	1.013	0.107	1.062	1.410	-0.047	1.043	0.648	-0.001	1.041	0.712	-0.014	0.995	0.665	-0.009	0.939	0.260	0.038	0.918	0.320	0.021	0.889	0.262	0.030	0.962	0.059	0.100	0.987	0.030	0.057	1.140	0.864	-0.117	1.082	0.849	-0.127	1.164	0.098	0.227	1.120	0.974	0.253	0.954	1.353	0.251	1.012	1.086	0.375	1.130	0.768	0.386	1.316	0.061	0.199	1.121	0.058	0.177	1.246	0.525	0.257	1.064	1.536	0.208	1.031	1.024	0.297	0.947	1.001	0.198	1.071	1.405	0.323	1.192	0.669	0.290	1.151	0.720	0.302	1.143	0.657	0.286	1.211	0.273	0.248	1.192	0.335	0.255	1.161	0.277	0.243	1.280	0.076	0.214	1.275	0.050	0.254	1.118	0.848	0.358	1.065	0.839	0.395	0.960	1.043	0.152	0.959	1.199	0.140	0.986	1.429	0.143
115	1.61000	1.118	1.379	0.138	1.198	1.610	0.162	0.866	0.067	0.061	1.135	0.990	0.051	1.038	1.087	-0.106	1.161	0.781	-0.147	1.008	0.041	0.130	0.808	0.043	0.096	1.011	0.499	0.027	1.077	1.553	0.076	1.037	1.030	-0.001	0.960	1.012	0.107	1.069	1.409	-0.046	1.047	0.647	-0.001	1.046	0.712	-0.014	1.000	0.665	-0.009	0.940	0.260	0.038	0.920	0.321	0.021	0.890	0.262	0.030	0.962	0.059	0.100	0.987	0.030	0.057	1.152	0.864	-0.118	1.094	0.848	-0.127	1.185	0.095	0.227	1.128	0.973	0.253	0.961	1.352	0.251	1.018	1.085	0.376	1.137	0.767	0.387	1.339	0.063	0.199	1.144	0.053	0.177	1.254	0.525	0.258	1.071	1.534	0.208	1.038	1.022	0.298	0.954	1.000	0.199	1.078	1.404	0.323	1.200	0.668	0.291	1.158	0.719	0.302	1.151	0.656	0.287	1.227	0.271	0.249	1.206	0.332	0.255	1.176	0.274	0.243	1.302	0.076	0.215	1.298	0.051	0.254	1.124	0.847	0.359	1.071	0.838	0.396	0.967	1.042	0.153	0.966	1.198	0.141	0.994	1.428	0.143
116	1.61500	1.126	1.377	0.138	1.206	1.608	0.163	0.866	0.068	0.061	1.142	0.989	0.051	1.047	1.086	-0.107	1.174	0.781	-0.148	1.008	0.041	0.130	0.808	0.044	0.097	1.014	0.499	0.026	1.085	1.552	0.076	1.044	1.029	-0.001	0.967	1.011	0.108	1.077	1.407	-0.046	1.052	0.646	-0.002	1.051	0.711	-0.014	1.004	0.664	-0.009	0.942	0.261	0.038	0.921	0.321	0.021	0.891	0.263	0.031	0.962	0.059	0.100	0.987	0.030	0.057	1.164	0.864	-0.118	1.106	0.848	-0.128	1.207	0.092	0.228	1.135	0.972	0.253	0.968	1.351	0.251	1.025	1.084	0.377	1.144	0.766	0.388	1.361	0.064	0.199	1.167	0.049	0.177	1.262	0.523	0.259	1.079	1.533	0.209	1.046	1.021	0.298	0.961	0.998	0.199	1.085	1.402	0.323	1.207	0.667	0.292	1.165	0.718	0.303	1.158	0.655	0.288	1.242	0.269	0.249	1.219	0.330	0.255	1.192	0.270	0.243	1.324	0.077	0.215	1.321	0.051	0.255	1.131	0.846	0.360	1.078	0.837	0.397	0.974	1.040	0.153	0.973	1.197	0.141	1.001	1.427	0.144
117	1.62000	1.133	1.376	0.138	1.213	1.606	0.163	0.866	0.068	0.062	1.149	0.988	0.051	1.055	1.085	-0.107	1.186	0.781	-0.148	1.008	0.041	0.130	0.808	0.045	0.097	1.017	0.499	0.026	1.093	1.551	0.076	1.051	1.028	-0.000	0.974	1.010	0.108	1.084	1.406	-0.046	1.056	0.646	-0.002	1.056	0.711	-0.015	1.009	0.664	-0.009	0.943	0.261	0.038	0.923	0.321	0.021	0.892	0.263	0.031	0.962	0.059	0.100	0.987	0.030	0.057	1.175	0.864	-0.118	1.118	0.847	-0.128	1.228	0.089	0.228	1.142	0.970	0.254	0.975	1.350	0.251	1.032	1.083	0.377	1.151	0.765	0.389	1.383	0.067	0.200	1.190	0.045	0.178	1.269	0.522	0.259	1.087	1.532	0.209	1.053	1.019	0.298	0.969	0.997	0.199	1.093	1.401	0.323	1.214	0.666	0.293	1.173	0.717	0.304	1.165	0.653	0.289	1.257	0.267	0.250	1.232	0.327	0.256	1.207	0.267	0.244	1.346	0.078	0.216	1.344	0.052	0.255	1.138	0.845	0.361	1.085	0.836	0.398	0.981	1.039	0.154	0.980	1.196	0.141	1.008	1.426	0.144
118	1.62500	1.140	1.374	0.138	1.221	1.605	0.163	0.866	0.069	0.062	1.156	0.987	0.051	1.064	1.083	-0.107	1.199	0.782	-0.148	1.008	0.041	0.130	0.808	0.046	0.097	1.020	0.498	0.026	1.100	1.550	0.077	1.058	1.027	0.000	0.982	1.008	0.109	1.091	1.405	-0.046	1.061	0.645	-0.002	1.061	0.710	-0.015	1.014	0.664	-0.010	0.944	0.261	0.038	0.925	0.321	0.021	0.894	0.264	0.031	0.963	0.059	0.100	0.986	0.030	0.057	1.187	0.865	-0.119	1.129	0.846	-0.129	1.249	0.086	0.229	1.150	0.969	0.254	0.983	1.349	0.251	1.038	1.081	0.378	1.158	0.764	0.390	1.405	0.069	0.200	1.212	0.041	0.178	1.277	0.521	0.260	1.094	1.530	0.209	1.060	1.018	0.299	0.976	0.996	0.200	1.100	1.399	0.324	1.222	0.664	0.293	1.180	0.715	0.305	1.172	0.652	0.289	1.272	0.266	0.250	1.245	0.325	0.256	1.222	0.263	0.244	1.368	0.079	0.216	1.366	0.053	0.255	1.144	0.844	0.362	1.091	0.835	0.399	0.988	1.038	0.154	0.987	1.195	0.142	1.016	1.425	0.144
119	1.63000	1.148	1.373	0.139	1.229	1.603	0.164	0.867	0.069	0.062	1.163	0.986	0.052	1.073	1.082	-0.108	1.212	0.782	-0.148	1.008	0.041	0.130	0.808	0.047	0.098	1.024	0.498	0.026	1.108	1.548	0.077	1.064	1.026	0.000	0.989	1.007	0.109	1.099	1.403	-0.045	1.066	0.645	-0.002	1.067	0.709	-0.015	1.019	0.664	-0.010	0.946	0.261	0.038	0.927	0.322	0.022	0.895	0.264	0.031	0.963	0.060	0.100	0.986	0.030	0.057	1.198	0.865	-0.119	1.141	0.846	-0.129	1.271	0.084	0.229	1.157	0.967	0.254	0.990	1.347	0.252	1.045	1.080	0.379	1.165	0.763	0.391	1.427	0.072	0.200	1.235	0.038	0.179	1.284	0.519	0.260	1.102	1.529	0.209	1.067	1.016	0.299	0.983	0.994	0.200	1.107	1.398	0.324	1.229	0.662	0.294	1.187	0.713	0.305	1.179	0.650	0.290	1.287	0.264	0.251	1.258	0.322	0.257	1.237	0.260	0.244	1.389	0.080	0.216	1.389	0.054	0.256	1.151	0.842	0.363	1.098	0.833	0.400	0.995	1.036	0.155	0.994	1.194	0.142	1.023	1.423	0.144
120	1.63500	1.155	1.371	0.139	1.237	1.601	0.164	0.867	0.070	0.063	1.170	0.985	0.052	1.081	1.080	-0.108	1.224	0.782	-0.149	1.008	0.041	0.130	0.808	0.048	0.098	1.027	0.497	0.026	1.116	1.547	0.077	1.071	1.024	0.001	0.996	1.006	0.110	1.106	1.401	-0.045	1.070	0.644	-0.002	1.072	0.708	-0.015	1.024	0.663	-0.010	0.947	0.261	0.038	0.929	0.322	0.022	0.897	0.264	0.031	0.963	0.060	0.101	0.986	0.030	0.057	1.209	0.865	-0.119	1.153	0.845	-0.130	1.292	0.082	0.230	1.165	0.966	0.254	0.997	1.346	0.252	1.052	1.079	0.379	1.172	0.762	0.392	1.449	0.075	0.201	1.258	0.035	0.179	1.291	0.518	0.261	1.109	1.527	0.210	1.075	1.014	0.300	0.990	0.992	0.201	1.114	1.396	0.324	1.235	0.660	0.295	1.194	0.712	0.306	1.186	0.648	0.291	1.302	0.263	0.252	1.271	0.320	0.257	1.252	0.257	0.245	1.410	0.082	0.217	1.411	0.056	0.256	1.158	0.841	0.364	1.105	0.832	0.400	1.002	1.034	0.155	1.001	1.192	0.142	1.031	1.422	0.145
121	1.64000	1.163	1.370	0.139	1.244	1.600	0.164	0.867	0.071	0.063	1.177	0.983	0.052	1.090	1.079	-0.108	1.237	0.783	-0.149	1.008	0.041	0.130	0.808	0.049	0.099	1.031	0.497	0.026	1.123	1.545	0.077	1.078	1.023	0.001	1.003	1.004	0.111	1.114	1.400	-0.045	1.075	0.643	-0.002	1.077	0.708	-0.015	1.029	0.663	-0.010	0.949	0.261	0.038	0.931	0.322	0.022	0.898	0.265	0.031	0.963	0.060	0.101	0.986	0.030	0.057	1.220	0.865	-0.119	1.164	0.845	-0.130	1.312	0.081	0.230	1.172	0.964	0.254	1.004	1.344	0.252	1.059	1.077	0.380	1.179	0.761	0.393	1.469	0.078	0.201	1.280	0.033	0.180	1.298	0.516	0.261	1.117	1.526	0.210	1.082	1.013	0.300	0.998	0.991	0.202	1.122	1.395	0.325	1.242	0.658	0.296	1.201	0.710	0.307	1.193	0.646	0.292	1.317	0.262	0.253	1.283	0.318	0.258	1.267	0.254	0.245	1.431	0.084	0.217	1.432	0.058	0.257	1.164	0.840	0.365	1.112	0.831	0.401	1.009	1.033	0.156	1.008	1.191	0.143	1.038	1.421	0.145
